<?xml version="1.0" encoding="utf-8"?>
<!-- Generator: Adobe Illustrator 19.0.0, SVG Export Plug-In . SVG Version: 6.00 Build 0)  -->
<svg version="1.1" id="Layer_1" xmlns="http://www.w3.org/2000/svg" xmlns:xlink="http://www.w3.org/1999/xlink" x="0px" y="0px"
	 viewBox="0 0 1400 980" style="enable-background:new 0 0 1400 980;" xml:space="preserve">
<style type="text/css">
	.st0{fill:#9B9475;}
	.st1{fill:#AFA887;}
	.st2{fill:#4B4521;}
	.st3{fill:#383317;}
	.st4{fill:#5F5A30;}
	.st5{fill:none;stroke:#D65651;stroke-width:3;stroke-miterlimit:10;}
	.st6{fill:#C1B999;}
	.st7{fill:#726B40;}
	.st8{fill:#DBD4AD;}
	.st9{fill:#3F391C;}
	.st10{fill:#AC342C;}
</style>
<rect class="st0" width="1400" height="980"/>
<g>
	<g>
		<g>
			<g>
				<path class="st1" d="M638.2,194.2c0,0,22.5,196.1,69,288.8l-132-88.8l-55.5-144v-30L638.2,194.2z"/>
				<path class="st1" d="M758.7,194.2c0,0-22.5,196.1-69,288.8l132-88.8l55.5-144v-30L758.7,194.2z"/>
			</g>
			<g>
				<path class="st2" d="M522,334.2c0,0-67.7,92.2-84.2,276.9c-16.5,184.6-18,255.1-18,255.1s47.3,22.7,75.7,0
					c0,0,10.8-287.1,55.4-326C550.9,540.2,603.3,365.8,522,334.2z"/>
				<path class="st2" d="M888.2,334.2c0,0,67.7,92.2,84.2,276.9c16.5,184.6,18,255.1,18,255.1s-47.3,22.7-75.7,0
					c0,0-10.8-287.1-55.4-326C859.3,540.2,806.9,365.8,888.2,334.2z"/>
				<path class="st0" d="M791.1,326.4c0,0-61.2-51.5-149.9-17.1l13,179.4L680.6,738l8.7,130h142l-64-169l-18-184.7L811.9,375
					L791.1,326.4z"/>
				<path class="st0" d="M698.4,182.7L698.4,182.7h-105c0,0,70,228,92.5,241.7c22.5,13.7,12.5,0,12.5,0c0,0,30,13.7,52.5,0
					c22.5-13.7,52.5-241.7,52.5-241.7H698.4z"/>
				<path class="st1" d="M745.8,426.8c0,0,69-175,10.8-216.3l23.3-18l48,23.2l-21.5,75l-38.7,139.7L745.8,426.8z"/>
				<path class="st1" d="M682.3,405.3c0,0-33.7-91.8-58.5-138c-18.7-35-5.3-54.8,5.6-55.7c10.8-0.9-36-7.4-36-7.4l-17.2,73.2
					L682.3,405.3z"/>
				<path class="st3" d="M805.9,876.3c0,0-90,3.3-106,0v-14.6c0,0,83.3,1.3,99-3.3L805.9,876.3z"/>
				<path class="st2" d="M717.5,520.2l-3.3-24.4c0,0-32.2-105.9-68.9-147.2l-23.3,8.4c0,2-0.7,4-2.3,5.2
					c-30.1,23.6-56.2-23.1-69.6-44.1c-0.3-0.5-0.5-0.9-0.7-1.4c-19.8,12.3-19.4,17.4-19.4,17.4c24,61.5,28.9,206,28.9,206
					c-1.1,62-12.4,336.1-12.4,336.1c42.5,21.7,171,17.4,171,17.4C732.5,850.2,717.5,520.2,717.5,520.2z"/>
				<path class="st4" d="M888.2,334.2c0,0-14.7-11.5-37.1-25c-10.4,24.7-37.3,48.4-37.3,48.4l-22.7-23.5h-4.9
					c0,0-59.6,102.5-57.7,192.8c1,48,4,128.7,8.7,192c3.9,53.6,53.2,144.9,68.3,171.7c26.4-2.5,51.4-6.9,66.1-14.4
					c0,0-11.3-274.2-12.4-336.1C859.3,540.2,864.2,395.7,888.2,334.2z"/>
				<g>
					<path class="st2" d="M821.8,649c0,0,14.7-6,20,20c5.3,26,16.7,98.7,16.7,98.7s2,14.7-15.3,24.7c-17.3,10-17.3,6.7-17.3,6.7
						l-28.5-66v-77.3L821.8,649z"/>
					<ellipse class="st3" cx="813.4" cy="729.5" rx="7" ry="8.5"/>
					<polygon class="st3" points="827.9,656.4 820.4,659 845.1,781.7 852.4,777 					"/>
				</g>
				<g>
					<path class="st3" d="M808.6,725c0.7,0,1.2,0,1.2,0c1.6-0.1,2.9-1.1,3.5-2.6c0.6-1.5,0.2-3.1-0.9-4.2c-0.9-0.9-2.3-1.9-5.3-4.1
						c-6-4.4-24.4-17.6-23.4-24.7c0.4-2.5,4-4.3,7.1-5.3c12-4.1,24.2-12.9,22.6-25.3c-1.2-9.6-10.7-16.7-23.6-17.8
						c-4.2-0.3-7.2-1.9-9.1-4.8c-5.2-7.6-2.5-22.6-1-27.8c0.6-2.1-0.6-4.3-2.7-5c-2.1-0.6-4.3,0.6-5,2.7c-0.3,0.9-6.3,22.3,2.1,34.5
						c3.4,4.9,8.4,7.7,15.1,8.2c9.1,0.8,15.6,5.1,16.3,10.8c0.6,5-3.6,12.1-17.3,16.8c-7.4,2.5-11.6,6.5-12.4,11.7
						c-1.3,8.8,7.7,17.9,18.5,26.3c-12.2-4.2-28.3-15.5-33.5-45.5c-0.4-2.2-2.4-3.6-4.6-3.3c-2.2,0.4-3.6,2.4-3.3,4.6
						c2.8,16.3,10.7,38,32,48.8C795.5,724.5,805.3,725,808.6,725z"/>
				</g>
				<path class="st4" d="M709.5,520.2l-3.3-24.4c0,0-32.2-125.9-68.9-167.2l-19,21.3c0.1,0.5,0.2,1.1,0.2,1.7c0,4,4.5-13.4,0.6-11.3
					c-16.6,8.8-19.6,13.4-36.7,11.6c-7.1-0.7-14.8-11.2-17.7-17.4c-3.2-7-6.9-13.7-11.6-19.8c0,0-0.1-0.1-0.1-0.1
					c-24.6,13.9-31,19.6-31,19.6c24,61.5,28.9,206,28.9,206c-1.1,62-12.4,336.1-12.4,336.1c42.5,21.7,171,17.4,171,17.4
					C724.5,850.2,709.5,520.2,709.5,520.2z"/>
				<polygon class="st2" points="667.3,558.3 558.4,531.2 671.3,407.8 				"/>
				<path class="st4" d="M672.5,400.4c-17.3-9.6-32-23.6-48.7-34.4c-1.3,1.3-3.1,2.2-5.4,2.2c-7.7,0.2-15.1-1.8-22.2-4.6
					c-6.2-2.5-13.1-4-19-7.1c-7-3.6-11.6-9.6-15.5-16.1l-6.4,66L550.5,529l105.2,11.1C651.9,526.1,663,455.1,672.5,400.4z"/>
				<g>
					<path class="st2" d="M594.6,649c0,0-14.7-6-20,20c-5.3,26-16.7,98.7-16.7,98.7s-2,14.7,15.3,24.7c17.3,10,17.3,6.7,17.3,6.7
						l28.5-66v-77.3L594.6,649z"/>
					<ellipse class="st3" cx="602.9" cy="729.5" rx="7" ry="8.5"/>
					<polygon class="st3" points="588.4,656.4 595.9,659 571.3,781.7 563.9,777 					"/>
				</g>
				<path class="st5" d="M402.6,686.4"/>
				<g>
					<path class="st4" d="M425.3,765.7c0,0,29.3,9.1,25.3,33.9s-19,19.6-28.5,16.2C422.1,815.8,409.9,784.7,425.3,765.7z"/>
					<ellipse class="st3" cx="437.1" cy="796.7" rx="5.9" ry="12"/>
				</g>
				<g>
					<path class="st4" d="M986.5,765.7c0,0-29.3,9.1-25.3,33.9s19,19.6,28.5,16.2C989.7,815.8,1001.9,784.7,986.5,765.7z"/>
					<ellipse class="st3" cx="974.8" cy="796.7" rx="5.9" ry="12"/>
				</g>
				<circle class="st5" cx="661.6" cy="607.4" r="5.7"/>
				<path class="st2" d="M550.1,596.4l166.2,3.4l-0.6,16H549.3C549.3,615.7,533.6,605,550.1,596.4z"/>
				<g>
					<path class="st3" d="M628.9,725c-0.7,0-1.2,0-1.2,0c-1.6-0.1-2.9-1.1-3.5-2.6c-0.6-1.5-0.2-3.1,0.9-4.2
						c0.9-0.9,2.3-1.9,5.3-4.1c6-4.4,24.4-17.6,23.4-24.7c-0.4-2.5-4-4.3-7.1-5.3c-12-4.1-24.2-12.9-22.6-25.3
						c1.2-9.6,10.7-16.7,23.6-17.8c4.2-0.3,7.2-1.9,9.1-4.8c5.2-7.6,2.5-22.6,1-27.8c-0.6-2.1,0.6-4.3,2.7-5c2.1-0.6,4.3,0.6,5,2.7
						c0.3,0.9,6.3,22.3-2.1,34.5c-3.4,4.9-8.4,7.7-15.1,8.2c-9.1,0.8-15.6,5.1-16.3,10.8c-0.6,5,3.6,12.1,17.3,16.8
						c7.4,2.5,11.6,6.5,12.4,11.7c1.3,8.8-7.7,17.9-18.5,26.3c12.2-4.2,28.3-15.5,33.5-45.5c0.4-2.2,2.4-3.6,4.6-3.3
						c2.2,0.4,3.6,2.4,3.3,4.6c-2.8,16.3-10.7,38-32,48.8C642,724.5,632.3,725,628.9,725z"/>
				</g>
				<path class="st2" d="M861.5,596.4l-85.8,3.4l0.5,16h85.9C862.2,615.7,876.2,605,861.5,596.4z"/>
				<path class="st2" d="M546.6,863.7c0,0,102.7,18.8,159.3,14.1l2-6.6C707.9,871.1,619,873.1,546.6,863.7z"/>
			</g>
			<g>
				<path class="st6" d="M582.3,352c0,0-49.7-76.5-19.8-120.2l-52-4C510.5,227.7,481.7,371.2,582.3,352z"/>
				<path class="st6" d="M814.6,352c0,0,49.7-76.5,19.8-120.2l52-4C886.4,227.7,915.2,371.2,814.6,352z"/>
			</g>
			<path class="st4" d="M769.7,115.2c-31.4-31.4-62.7-30-71.2-28.9c-8.5-1.1-39.8-2.6-71.2,28.9c-36.8,36.8-51,54-51,54h108h28.5
				h108C820.7,169.2,806.5,152.1,769.7,115.2z"/>
			<path class="st6" d="M813.4,155.7c-70.2-26.7-110.2-20.5-115-19.6c-4.8-0.9-44.8-7.1-115,19.6c-75,28.5-76.5,94.5-76.5,94.5
				s46.5-7.5,79.5-27c30.8-18.2,102.3-12.9,111.5-12.1v0.1c0,0,0.2,0,0.5,0c0.3,0,0.5,0,0.5,0v-0.1c9.2-0.8,80.7-6.1,111.5,12.1
				c33,19.5,79.5,27,79.5,27S888.4,184.2,813.4,155.7z"/>
			<path class="st2" d="M861.3,382.7c0,0-76.9,105.5-78.8,140c-2,34.5,3,60.6,14,79l-2.8,22.1c0,0,4.6,74.8,34.2,128.9
				c28.5,52.1,48.7,61.7,48.7,61.7s-24.1,53.7-71,76.4l-52.7-275l-4.5-142l52-73L861.3,382.7z"/>
			<path class="st7" d="M876.6,814.4c-0.2-5.3-49.2-80.7-60.3-88.4c-15-10.3-37-49.3-28-83.3s19-42-17-88s10-104,24-118s66-54,66-54
				l-70.1-48.5h-4.9c0,0-59.6,102.5-57.7,192.8c1,48,4,128.7,8.7,192c3.9,53.6,53.2,144.9,68.3,171.7
				C805.6,890.8,853.3,830.1,876.6,814.4z"/>
			<path class="st2" d="M619,376.5c0,0,88.9,107.7,90.4,143.7l-11.8-71.9l-43.4-71.9H619z"/>
			<path class="st7" d="M708.9,483c0,0-32.3-118-71.3-155.5l-21,13.5c0,0-26.7,27.7,33.3,78.7C709.9,470.7,708.9,483,708.9,483z"/>
			<path class="st8" d="M994.3,297.4"/>
			<g>
				<path class="st1" d="M826.9,820.7c0,0-65.6-46.2-90.2-97.2c4.5,39.3,30.6,96.2,50.2,134.3L826.9,820.7z"/>
				<path class="st1" d="M728.4,559.3c0.9,31.1,2.4,68.5,4.4,104.9C762.2,603,734,565.7,728.4,559.3z"/>
			</g>
			<circle class="st2" cx="629.4" cy="360.3" r="6.6"/>
			<circle class="st2" cx="827.9" cy="382.7" r="6.6"/>
		</g>
		<path class="st4" d="M974.5,623.3c-0.4-4-0.7-8-1.1-12.2c-2.2-25-5.4-48.3-9.2-69.9c-21.4,0.7-38.6,19-38.6,41.6
			c0,23,17.8,41.6,39.7,41.6C968.5,624.4,971.6,624,974.5,623.3z"/>
		<path class="st4" d="M436.1,623.3c0.4-4,0.7-8,1.1-12.2c2.2-25,5.4-48.3,9.2-69.9c21.4,0.7,38.6,19,38.6,41.6
			c0,23-17.8,41.6-39.7,41.6C442,624.4,439,624,436.1,623.3z"/>
	</g>
	<g>
		<g>
			<path class="st3" d="M393.2,201c0,0-200.3-32.3-235,56.3c0,0,2,18.7,25.3,4.7s26-45.3,80-49.3c54-4,129.7,8.7,129.7,8.7V201z"/>
			<path class="st2" d="M96.1,201c0,0,200.3-32.3,235,56.3c0,0-2,18.7-25.3,4.7c-23.3-14-26-45.3-80-49.3c-54-4-129.7,8.7-129.7,8.7
				V201z"/>
			<path class="st4" d="M96.1,201v20.3c0,0,7.7-0.3,10,15.7c2.3,16,3.7,57,49.7,60s62.3-15.6,75-48.9c0,0,3.3-16.4,13.3-16.4l3.4-16
				c0,0-34.8-12.3-50-14.3C181.2,199.2,153.5,191,96.1,201z"/>
			<path class="st2" d="M144.8,208.4c0,0-27.3-1-26.7,29c0.7,30,13,52,38.3,53s60-1,63.7-49.7c0,0,6.3-24.3-28-30.7
				C157.8,203.7,144.8,208.4,144.8,208.4z"/>
			<ellipse class="st2" cx="108.3" cy="214.9" rx="6.5" ry="2.2"/>
			<path class="st4" d="M393.2,201v20.3c0,0-7.7-0.3-10,15.7c-2.3,16-3.7,57-49.7,60s-62.3-15.6-75-48.9c0,0-3.3-16.4-13.3-16.4
				l-3.4-16c0,0,34.8-12.3,50-14.3C308.2,199.2,335.9,191,393.2,201z"/>
			<path class="st2" d="M344.6,208.4c0,0,27.3-1,26.7,29c-0.7,30-13,52-38.3,53c-25.3,1-60-1-63.7-49.7c0,0-6.3-24.3,28-30.7
				C331.6,203.7,344.6,208.4,344.6,208.4z"/>
			<path class="st3" d="M285.4,213.5c-8.7,3.8-13,9.1-15,14.1c14.8,11.2,21.4,26,35.4,34.4c23.3,14,25.3-4.7,25.3-4.7
				C323.2,237,306.4,223,285.4,213.5z"/>
			<path class="st3" d="M204,213.5c8.7,3.8,13,9.1,15,14.1c-14.8,11.2-21.4,26-35.4,34.4c-23.3,14-25.3-4.7-25.3-4.7
				C166.2,237,183,223,204,213.5z"/>
			<ellipse class="st2" cx="381.1" cy="214.9" rx="6.5" ry="2.2"/>
			<rect x="241.9" y="224" class="st4" width="12" height="7.7"/>
		</g>
		<g>
			<rect x="112.1" y="479.5" class="st4" width="245.3" height="24.8"/>
			<rect x="96.1" y="504.4" class="st6" width="280.4" height="280.4"/>
			<rect x="96.1" y="770" class="st1" width="280.4" height="7.2"/>
			<path class="st1" d="M239.2,360.6v-0.2c-1,0-1.9,0-2.9,0c-1,0-1.9,0-2.9,0v0.2C131.8,366.8,138,536.5,138,536.5h37.1
				c0-133.4,48.8-154.3,61.2-159.8c12.5,5.5,61.2,26.4,61.2,159.8h37.1C334.6,536.5,340.8,366.8,239.2,360.6z"/>
			<g>
				<path class="st7" d="M168.2,589.6h-7.8V605h-7.9v-40.6h15.7c4.1,0,7.4,1.2,9.8,3.6c2.4,2.4,3.6,5.4,3.6,9c0,3.6-1.2,6.6-3.6,9
					C175.5,588.4,172.3,589.6,168.2,589.6z M167.8,571.4h-7.4v11.1h7.4c1.8,0,3.2-0.5,4.3-1.5c1.1-1,1.6-2.3,1.6-4
					c0-1.7-0.5-3-1.6-4C171,571.9,169.6,571.4,167.8,571.4z"/>
				<path class="st7" d="M188.3,605v-40.6H215v7.1h-18.8v9.5h16v7.1h-16v9.9H215v7.1H188.3z"/>
				<path class="st7" d="M245.8,605l-2.4-7.2H229l-2.5,7.2h-8.3l14.8-40.6h6.2l14.8,40.6H245.8z M236.3,576.3l-5.1,14.8h10.1
					L236.3,576.3z"/>
				<path class="st7" d="M272.6,605.2c-2.2,0-4.2-0.4-6-1.1c-1.8-0.8-3.6-2-5.2-3.6c-1.7-1.7-2.7-3.6-3.1-5.8
					c-0.4-2.2-0.6-5.6-0.6-10.1c0-4.4,0.2-7.8,0.6-10.1c0.4-2.3,1.5-4.2,3.1-5.9c1.7-1.7,3.4-2.8,5.2-3.6c1.8-0.7,3.8-1.1,6-1.1
					c3.9,0,7.2,1.1,9.9,3.3c2.7,2.2,4.4,5.4,5,9.5h-8c-0.4-1.7-1.2-3.1-2.3-4.2c-1.1-1-2.6-1.6-4.5-1.6c-2.2,0-3.7,0.6-4.7,1.7
					c-1,1.1-1.6,2.5-1.9,4c-0.3,1.6-0.4,4.2-0.4,7.9c0,3.8,0.1,6.5,0.4,7.9c0.3,1.4,0.9,2.7,1.9,3.9c1,1.2,2.6,1.7,4.8,1.7
					c1.9,0,3.4-0.5,4.5-1.6c1.1-1,1.9-2.4,2.3-4.2h8c-0.7,4.1-2.4,7.3-5.1,9.5C279.8,604.1,276.5,605.2,272.6,605.2z"/>
				<path class="st7" d="M294.4,605v-40.6h26.7v7.1h-18.8v9.5h16v7.1h-16v9.9h18.8v7.1H294.4z"/>
				<path class="st7" d="M168.2,658h-7.8v15.3h-7.9v-40.6h15.7c4.1,0,7.4,1.2,9.8,3.6c2.4,2.4,3.6,5.4,3.6,9c0,3.6-1.2,6.6-3.6,9
					C175.5,656.8,172.3,658,168.2,658z M167.8,639.8h-7.4v11.1h7.4c1.8,0,3.2-0.5,4.3-1.5c1.1-1,1.6-2.3,1.6-4c0-1.7-0.5-3-1.6-4
					C171,640.3,169.6,639.8,167.8,639.8z"/>
				<path class="st7" d="M188.3,673.3v-40.6H215v7.1h-18.8v9.5h16v7.1h-16v9.9H215v7.1H188.3z"/>
				<path class="st7" d="M245.8,673.3l-2.4-7.2H229l-2.5,7.2h-8.3l14.8-40.6h6.2l14.8,40.6H245.8z M236.3,644.7l-5.1,14.8h10.1
					L236.3,644.7z"/>
				<path class="st7" d="M272.6,673.6c-2.2,0-4.2-0.4-6-1.1c-1.8-0.8-3.6-2-5.2-3.6c-1.7-1.7-2.7-3.6-3.1-5.8
					c-0.4-2.2-0.6-5.6-0.6-10.1c0-4.4,0.2-7.8,0.6-10.1c0.4-2.3,1.5-4.2,3.1-5.9c1.7-1.7,3.4-2.8,5.2-3.6c1.8-0.7,3.8-1.1,6-1.1
					c3.9,0,7.2,1.1,9.9,3.3c2.7,2.2,4.4,5.4,5,9.5h-8c-0.4-1.7-1.2-3.1-2.3-4.2c-1.1-1-2.6-1.6-4.5-1.6c-2.2,0-3.7,0.6-4.7,1.7
					c-1,1.1-1.6,2.5-1.9,4c-0.3,1.6-0.4,4.2-0.4,7.9c0,3.8,0.1,6.5,0.4,7.9c0.3,1.4,0.9,2.7,1.9,3.9c1,1.2,2.6,1.7,4.8,1.7
					c1.9,0,3.4-0.5,4.5-1.6c1.1-1,1.9-2.4,2.3-4.2h8c-0.7,4.1-2.4,7.3-5.1,9.5C279.8,672.5,276.5,673.6,272.6,673.6z"/>
				<path class="st7" d="M294.4,673.3v-40.6h26.7v7.1h-18.8v9.5h16v7.1h-16v9.9h18.8v7.1H294.4z"/>
				<path class="st7" d="M168.2,726.4h-7.8v15.3h-7.9v-40.6h15.7c4.1,0,7.4,1.2,9.8,3.6c2.4,2.4,3.6,5.4,3.6,9c0,3.6-1.2,6.6-3.6,9
					C175.5,725.2,172.3,726.4,168.2,726.4z M167.8,708.2h-7.4v11.1h7.4c1.8,0,3.2-0.5,4.3-1.5c1.1-1,1.6-2.3,1.6-4
					c0-1.7-0.5-3-1.6-4C171,708.7,169.6,708.2,167.8,708.2z"/>
				<path class="st7" d="M188.3,741.7v-40.6H215v7.1h-18.8v9.5h16v7.1h-16v9.9H215v7.1H188.3z"/>
				<path class="st7" d="M245.8,741.7l-2.4-7.2H229l-2.5,7.2h-8.3l14.8-40.6h6.2l14.8,40.6H245.8z M236.3,713.1l-5.1,14.8h10.1
					L236.3,713.1z"/>
				<path class="st7" d="M272.6,742c-2.2,0-4.2-0.4-6-1.1c-1.8-0.8-3.6-2-5.2-3.6c-1.7-1.7-2.7-3.6-3.1-5.8
					c-0.4-2.2-0.6-5.6-0.6-10.1c0-4.4,0.2-7.8,0.6-10.1c0.4-2.3,1.5-4.2,3.1-5.9c1.7-1.7,3.4-2.8,5.2-3.6c1.8-0.7,3.8-1.1,6-1.1
					c3.9,0,7.2,1.1,9.9,3.3c2.7,2.2,4.4,5.4,5,9.5h-8c-0.4-1.7-1.2-3.1-2.3-4.2c-1.1-1-2.6-1.6-4.5-1.6c-2.2,0-3.7,0.6-4.7,1.7
					c-1,1.1-1.6,2.5-1.9,4c-0.3,1.6-0.4,4.2-0.4,7.9c0,3.8,0.1,6.5,0.4,7.9c0.3,1.4,0.9,2.7,1.9,3.9c1,1.2,2.6,1.7,4.8,1.7
					c1.9,0,3.4-0.5,4.5-1.6c1.1-1,1.9-2.4,2.3-4.2h8c-0.7,4.1-2.4,7.3-5.1,9.5C279.8,740.9,276.5,742,272.6,742z"/>
				<path class="st7" d="M294.4,741.7v-40.6h26.7v7.1h-18.8v9.5h16v7.1h-16v9.9h18.8v7.1H294.4z"/>
			</g>
		</g>
	</g>
	<g>
		<g>
			<g>
				<path class="st2" d="M1123.7,564.1c0,0,27.8,39,31.7,38c3.8-1,59.6-37,59.6-37s-1.1-14-19-40.7c0,0,3.2-11.2-8.9-34.4
					c-12.1-23.2-33.1-83.1-54.1-103.3c-3.8-3.7-22.7-11.6-19.5,5.5l16,31.9c0,0-20.2-31.9-26.2-42c-4.2-7.1-26.1-8.7-23.4,6.1
					l24.2,47c0,0-25.7-44.3-34.9-47.9c-7.7-3-19.4,3.8-15.2,16.1l28.9,45.4c0,0-26.7-36-30.9-38.9c-6.5-4.3-22.8,1.6-14.2,19.2
					c8.6,17.6,47.6,73.6,47.6,73.6l-31.5-22.2c0,0-13.3-9.1-23.2,3.3c-9.9,12.5,11.3,24.2,11.3,24.2S1112.5,563.6,1123.7,564.1z"/>
				<path class="st9" d="M1146.5,601.2c0,0-2.4,15,10.3,12.6c12.7-2.5,60.8-38.9,60.8-38.9s6.4-10.2-4.3-10.4
					C1202.5,564.2,1146.5,601.2,1146.5,601.2z"/>
				<path class="st9" d="M1204.2,538.8c0,0-13.1,35.9-25.2,41.8l-3.7-16.1L1204.2,538.8z"/>
				<polygon class="st9" points="1149,409 1139.8,424.4 1121.4,413.4 1111.8,424.4 1108.3,459.9 1154.8,468.4 				"/>
				<path class="st9" d="M1091.4,545.1c0,0-15.1-67,1.9-113.5l10,51.9L1091.4,545.1z"/>
				<path class="st10" d="M1146.3,552.7c0,0,29.5-0.5,49.6-28.4c0,0,4.8,6.9,8.3,13.5C1204.2,537.8,1152,564.9,1146.3,552.7z"/>
			</g>
			<g>
				<path class="st4" d="M1180.1,574.7c0,0-8.8,47.1-12.7,47.8c-3.9,0.7-69.6-8.4-69.6-8.4s-4.9-13.2,0-45c0,0-7.6-8.8-6.4-35
					s-5.1-89.3,5.5-116.5c1.9-4.9,15.7-20.1,20-3.2l-1.1,35.7c0,0,4.9-37.4,6-49.1c0.8-8.2,20-18.9,23.8-4.3l-2.1,52.8
					c0,0,4.6-51,11.4-58.2c5.7-6,19.2-4.8,20.6,8.2l-7,53.3c0,0,9-43.9,11.6-48.3c4-6.7,21.3-8.2,21,11.4
					c-0.4,19.6-12.1,86.8-12.1,86.8l19.2-33.4c0,0,8.2-13.9,22.4-6.8s0,26.7,0,26.7S1190.1,569.5,1180.1,574.7z"/>
				<path class="st2" d="M1154.8,573.9c0,0-27,12-57-4.8c0,0-1.5,8.3-1.8,15.8C1096,584.9,1154.8,587.4,1154.8,573.9z"/>
			</g>
		</g>
		<g>
			<g>
				<path class="st2" d="M1091.5,790.8c0,0-53.1-4-53.1,42.1l123.7,4.4l138.8-6v-155h-87.7c0,0-7.3,49.5-30.3,71.5
					s-35.2,27.8-35.2,27.8l-10.2,5.7L1091.5,790.8z"/>
				<path class="st3" d="M1236.7,693.9c0,0,14.2,26.3,64.2,13l-59-18.3L1236.7,693.9z"/>
				<polygon class="st6" points="1038.4,826.1 1038.4,843.9 1174.3,843.9 1232.2,840.1 1232.2,843.9 1300.9,843.9 1300.9,822 
					1233.7,822 				"/>
				<path class="st3" d="M1231.4,684.6c0,0-11.8,85.9-87.3,112.9C1144.1,797.6,1223.2,777.3,1231.4,684.6z"/>
				<circle class="st3" cx="1219.6" cy="692.7" r="4.2"/>
				<circle class="st3" cx="1214.6" cy="712.7" r="4.2"/>
				<circle class="st3" cx="1207.6" cy="729.7" r="4.2"/>
				<circle class="st3" cx="1198.6" cy="745.7" r="4.2"/>
				<circle class="st3" cx="1184.6" cy="759.7" r="4.2"/>
				<circle class="st3" cx="1169.6" cy="770.6" r="4.2"/>
				<path class="st6" d="M1171.7,770.1l-7-8.5c0,0-4.1,1.4-4,3.3c0.1,1.9,6.8,7.7,6.8,7.7S1173,771.6,1171.7,770.1z"/>
				<circle class="st3" cx="1154.9" cy="779.9" r="4.2"/>
				<path class="st6" d="M1157.1,779.5l-6.4-9c0,0-4.2,1.1-4.2,3s6.2,8.2,6.2,8.2S1158.2,781.1,1157.1,779.5z"/>
				<circle class="st3" cx="1139.9" cy="788.2" r="4.2"/>
				<path class="st6" d="M1142.1,788.2l-4.7-10c0,0-4.3,0.4-4.7,2.2c-0.3,1.8,4.7,9.2,4.7,9.2S1142.9,790,1142.1,788.2z"/>
				<path class="st6" d="M1187.1,757.9l-11-7.2c0,0-3.5,2.6-2.8,4.4c0.7,1.7,10.6,6.5,10.6,6.5S1188.7,759,1187.1,757.9z"/>
				<path class="st6" d="M1200.5,744l-11-7.2c0,0-3.5,2.6-2.8,4.4c0.7,1.7,10.6,6.5,10.6,6.5S1202.1,745.1,1200.5,744z"/>
				<path class="st6" d="M1209.7,728.4l-12.1-5.2c0,0-3,3.2-2,4.8c1,1.6,11.6,4.5,11.6,4.5S1211.5,729.2,1209.7,728.4z"/>
				<path class="st6" d="M1221.4,690.7l-12.8-2.9c0,0-2.4,3.7-1.1,5c1.2,1.4,12.2,2.4,12.2,2.4S1223.4,691.1,1221.4,690.7z"/>
				<path class="st6" d="M1215.8,710.8l-12.8-2.9c0,0-2.4,3.7-1.1,5c1.2,1.4,12.2,2.4,12.2,2.4S1217.7,711.2,1215.8,710.8z"/>
			</g>
			<path class="st6" d="M1091.5,790.8c0,0-53.1-5.1-53.1,35.4h61.6C1099.9,826.1,1099.5,800,1091.5,790.8z"/>
			<circle class="st6" cx="1257.6" cy="752.7" r="22.9"/>
			<rect x="1038.4" y="829.6" class="st3" width="262.5" height="3"/>
			<path class="st6" d="M1226.4,676.3c0,0-5.4,30.6,74.5,30.6c0,0,6.6-20.4,0-37.7C1296.4,657.6,1218.1,667.3,1226.4,676.3z"/>
			<polygon class="st1" points="1099.9,824.8 1062.4,824.8 1099.7,820.8 			"/>
			<g>
				<circle class="st3" cx="1181.5" cy="808.5" r="4.6"/>
				<circle class="st3" cx="1201.5" cy="808.5" r="4.6"/>
			</g>
		</g>
		<path class="st2" d="M1095,602.1c0,0-11.3,10.2,0.1,16.2s71.7,7.7,71.7,7.7s11.4-3.9,3.2-10.8S1095,602.1,1095,602.1z"/>
		<g>
			<polygon class="st1" points="1303.9,177.7 1271.6,310.2 1252.3,162.5 			"/>
			<rect x="994.3" y="136.1" class="st6" width="277.3" height="174.1"/>
			<g>
				<rect x="1088.9" y="224.6" class="st4" width="88" height="72"/>
				<rect x="1013.6" y="196.3" class="st1" width="163.3" height="16"/>
				<rect x="1013.6" y="179" class="st1" width="238.7" height="2.5"/>
				<rect x="1195.6" y="196.3" class="st1" width="56.6" height="16"/>
				<g>
					<rect x="1013.6" y="224.6" class="st1" width="56.6" height="8"/>
					<rect x="1013.6" y="240.6" class="st1" width="56.6" height="8"/>
					<rect x="1013.6" y="256.6" class="st1" width="56.6" height="8"/>
					<rect x="1013.6" y="272.6" class="st1" width="56.6" height="8"/>
					<rect x="1013.6" y="288.6" class="st1" width="56.6" height="8"/>
					<rect x="1195.6" y="224.6" class="st1" width="56.6" height="8"/>
					<rect x="1195.6" y="240.6" class="st1" width="56.6" height="8"/>
					<rect x="1195.6" y="256.6" class="st1" width="56.6" height="8"/>
					<rect x="1195.6" y="272.6" class="st1" width="56.6" height="8"/>
					<rect x="1195.6" y="288.6" class="st1" width="56.6" height="8"/>
				</g>
				<g>
					<ellipse class="st1" cx="1072.1" cy="158.5" rx="9.7" ry="8.8"/>
					<rect x="1100.6" y="149.8" class="st1" width="102.8" height="17.5"/>
				</g>
				<ellipse class="st2" cx="1132.9" cy="263.3" rx="20.7" ry="18.7"/>
			</g>
			<polygon class="st0" points="1271.6,168.2 1278.1,284.1 1271.6,310.2 			"/>
		</g>
	</g>
</g>
</svg>
