<?xml version="1.0" encoding="utf-8"?>
<svg id="master-artboard" viewBox="0 0 351.16156005859375 354.0000305175781" version="1.1" xmlns="http://www.w3.org/2000/svg" x="0px" y="0px" width="351.16156005859375px" height="354.0000305175781px" enable-background="new 0 0 1096 780" xmlns:xlink="http://www.w3.org/1999/xlink"><rect id="ee-background" x="0" y="0" width="351.16156005859375" height="354.0000305175781" style="fill: white; fill-opacity: 0; pointer-events: none;"/>
<path d="M 0 0 H 1096 V 780 H 0 V 0 Z" fill="#FFFFFF" transform="matrix(1, 0, 0, 1, -738.2235260009766, -1.3229503631591797)"/><path d="M 737.700012 0 H 1096 V 358.299988 H 737.700012 V 0 Z" fill="#FFBC00" transform="matrix(1, 0, 0, 1, -738.2235260009766, -1.3229503631591797)"/><defs>
			<path d="M 0 0 H 358.299988 V 358.299988 H 0 V 0 Z" id="SVGID_1_"/>
		</defs><clipPath id="SVGID_2_">
			<use overflow="visible" xlink:href="#SVGID_1_"/>
		</clipPath><defs>
			<path d="M 0 368.299988 H 358.299988 V 726.599976 H 0 V 368.299988 Z" id="SVGID_3_"/>
		</defs><clipPath id="SVGID_4_">
			<use overflow="visible" xlink:href="#SVGID_3_"/>
		</clipPath><defs>
			<path d="M 368.899994 0 H 727.199982 V 358.299988 H 368.899994 V 0 Z" id="SVGID_5_"/>
		</defs><clipPath id="SVGID_6_">
			<use overflow="visible" xlink:href="#SVGID_5_"/>
		</clipPath><path d="M 921 598.0999755859375 L 456 317.1000061035156 L 456 41.20000076293945 L 640 41.20000076293945 Z" clip-path="url(#SVGID_6_)" fill="#007200" transform="matrix(1, 0, 0, 1, -738.2235260009766, -1.3229503631591797)"/><defs>
			<path d="M 368.899994 368.299988 H 727.199982 V 726.599976 H 368.899994 V 368.299988 Z" id="SVGID_7_"/>
		</defs><clipPath id="SVGID_8_">
			<use overflow="visible" xlink:href="#SVGID_7_"/>
		</clipPath><defs>
			<path d="M 737.700012 0 H 1096 V 358.299988 H 737.700012 V 0 Z" id="SVGID_9_"/>
		</defs><clipPath id="SVGID_10_">
			<use overflow="visible" xlink:href="#SVGID_9_"/>
		</clipPath><path d="M 1289.800048828125 598.0999755859375 L 824.9000244140625 317.1000061035156 L 824.9000244140625 41.20000076293945 L 1008.7999877929688 41.20000076293945 Z" clip-path="url(#SVGID_10_)" fill="#FF9E00" transform="matrix(1, 0, 0, 1, -738.2235260009766, -1.3229503631591797)"/><path fill="#FFFFFF" stroke="#FFFFFF" stroke-width="2" stroke-linejoin="round" stroke-miterlimit="10" d="M824.3,317.7h33.4&#10;&#9;&#9;&#9;h29.3h59.9h29.3h33.4V40.5h-33.4h-29.3h-59.9h-29.3h-33.4V317.7z M830.3,41.8c0,0.8-0.2,2.2-1.1,3.4c-0.8,1-2,1.6-3.6,1.8v-5.2&#10;&#9;&#9;&#9;H830.3z M915.1,179.8c0.3,0.7,0.9,1.2,1.7,1.2s1.5-0.5,1.7-1.2h25c-0.3,14.5-12.2,26.1-26.7,26.1c-14.5,0-26.4-11.7-26.7-26.1&#10;&#9;&#9;&#9;H915.1z M918.6,178.5c-0.3-0.7-0.9-1.2-1.7-1.2s-1.5,0.5-1.7,1.2h-25c0.3-14.5,12.2-26.1,26.7-26.1c14.5,0,26.4,11.7,26.7,26.1&#10;&#9;&#9;&#9;H918.6z M825.5,311.3c1.6,0.2,2.8,0.8,3.6,1.8c1,1.2,1.1,2.6,1.1,3.4h-4.7V311.3z M888.2,316.5v-17.3h57.3v17.3H888.2z&#10;&#9;&#9;&#9; M946.8,297.9h-59.9v18.6h-28v-46.7h34.2h47.4h34.2v46.7h-28V297.9z M895.7,268.5c5.1-6.6,12.9-10.5,21.2-10.5&#10;&#9;&#9;&#9;c8.3,0,16.2,3.9,21.2,10.5H895.7z M976.1,268.5h-36.4c-5.3-7.4-13.7-11.7-22.8-11.7c-9,0-17.5,4.4-22.8,11.7h-36.4v47.9h-26.1&#10;&#9;&#9;&#9;c0-1-0.2-2.7-1.4-4.2c-1-1.3-2.6-2-4.6-2.3V179.8h63.3c0.3,15.2,12.8,27.4,28,27.4c15.2,0,27.7-12.2,28-27.4h63.3V310&#10;&#9;&#9;&#9;c-2,0.3-3.6,1-4.6,2.3c-1.2,1.5-1.4,3.2-1.4,4.2h-26.1V268.5z M1003.5,316.5c0-0.8,0.2-2.2,1.1-3.4c0.8-1,2-1.6,3.6-1.8v5.2&#10;&#9;&#9;&#9;H1003.5z M1008.2,47c-1.6-0.2-2.8-0.8-3.6-1.8c-1-1.2-1.1-2.6-1.1-3.4h4.7V47z M945.5,41.8v17.3h-57.3V41.8H945.5z M886.9,60.4&#10;&#9;&#9;&#9;h59.9V41.8h28v46.7h-34.2h-47.4h-34.2V41.8h28V60.4z M938.1,89.8c-5.1,6.6-12.9,10.5-21.2,10.5c-8.3,0-16.2-3.9-21.2-10.5H938.1z&#10;&#9;&#9;&#9; M857.7,89.8h36.4c5.3,7.4,13.7,11.7,22.8,11.7c9,0,17.5-4.4,22.8-11.7h36.4V41.8h26.1c0,1,0.2,2.7,1.4,4.2c1,1.3,2.6,2,4.6,2.3&#10;&#9;&#9;&#9;v130.2h-63.3c-0.3-15.2-12.8-27.4-28-27.4c-15.2,0-27.7,12.2-28,27.4h-63.3V48.3c2-0.3,3.6-1,4.6-2.3c1.2-1.5,1.4-3.2,1.4-4.2&#10;&#9;&#9;&#9;h26.1V89.8z" transform="matrix(1, 0, 0, 1, -738.2235260009766, -1.3229503631591797)"/><path d="M 918.800024 74 A 1.9 1.9 0 0 1 916.900024 75.9 A 1.9 1.9 0 0 1 915.000024 74 A 1.9 1.9 0 0 1 916.900024 72.1 A 1.9 1.9 0 0 1 918.800024 74 Z" fill="#FFFFFF" stroke="#FFFFFF" stroke-width="2" stroke-linejoin="round" stroke-miterlimit="10" transform="matrix(1, 0, 0, 1, -738.2235260009766, -1.3229503631591797)"/><path d="M 918.800024 284.299988 A 1.9 1.9 0 0 1 916.900024 286.199988 A 1.9 1.9 0 0 1 915.000024 284.299988 A 1.9 1.9 0 0 1 916.900024 282.399988 A 1.9 1.9 0 0 1 918.800024 284.299988 Z" fill="#FFFFFF" stroke="#FFFFFF" stroke-width="2" stroke-linejoin="round" stroke-miterlimit="10" transform="matrix(1, 0, 0, 1, -738.2235260009766, -1.3229503631591797)"/><defs>
			<path d="M 737.700012 368.299988 H 1096 V 726.599976 H 737.700012 V 368.299988 Z" id="SVGID_11_"/>
		</defs><clipPath id="SVGID_12_">
			<use overflow="visible" xlink:href="#SVGID_11_"/>
		</clipPath>

</svg>