<?xml version="1.0" encoding="utf-8"?>
<svg id="master-artboard" viewBox="0 0 357.77642822265625 348.7080993652344" version="1.1" xmlns="http://www.w3.org/2000/svg" x="0px" y="0px" width="357.77642822265625px" height="348.7080993652344px" enable-background="new 0 0 1096 780" xmlns:xlink="http://www.w3.org/1999/xlink"><rect id="ee-background" x="0" y="0" width="357.77642822265625" height="348.7080993652344" style="fill: white; fill-opacity: 0; pointer-events: none;"/>
<path d="M 0 0 H 1096 V 780 H 0 V 0 Z" fill="#FFFFFF" transform="matrix(1, 0, 0, 1, -367.7887878417969, -374.40369415283203)"/><path d="M 368.899994 368.299988 H 727.199982 V 726.599976 H 368.899994 V 368.299988 Z" fill="#009B75" transform="matrix(1, 0, 0, 1, -367.7887878417969, -374.40369415283203)"/><defs>
			<path d="M 0 0 H 358.299988 V 358.299988 H 0 V 0 Z" id="SVGID_1_"/>
		</defs><clipPath id="SVGID_2_">
			<use overflow="visible" xlink:href="#SVGID_1_"/>
		</clipPath><path d="M 552.0999755859375 598.0999755859375 L 87.19999694824219 317.1000061035156 L 87.19999694824219 41.20000076293945 L 271.1000061035156 41.20000076293945 Z" clip-path="url(#SVGID_2_)" fill="#007594" transform="matrix(1, 0, 0, 1, -367.7887878417969, -374.40369415283203)"/><defs>
			<path d="M 0 368.299988 H 358.299988 V 726.599976 H 0 V 368.299988 Z" id="SVGID_3_"/>
		</defs><clipPath id="SVGID_4_">
			<use overflow="visible" xlink:href="#SVGID_3_"/>
		</clipPath><path d="M 552.0999755859375 966.4000244140625 L 87.19999694824219 685.4000244140625 L 87.19999694824219 409.5 L 271.1000061035156 409.5 Z" clip-path="url(#SVGID_4_)" fill="#C24C57" transform="matrix(1, 0, 0, 1, -367.7887878417969, -374.40369415283203)"/><defs>
			<path d="M 368.899994 0 H 727.199982 V 358.299988 H 368.899994 V 0 Z" id="SVGID_5_"/>
		</defs><clipPath id="SVGID_6_">
			<use overflow="visible" xlink:href="#SVGID_5_"/>
		</clipPath><path d="M 921 598.0999755859375 L 456 317.1000061035156 L 456 41.20000076293945 L 640 41.20000076293945 Z" clip-path="url(#SVGID_6_)" fill="#007200" transform="matrix(1, 0, 0, 1, -367.7887878417969, -374.40369415283203)"/><defs>
			<path d="M 368.899994 368.299988 H 727.199982 V 726.599976 H 368.899994 V 368.299988 Z" id="SVGID_7_"/>
		</defs><clipPath id="SVGID_8_">
			<use overflow="visible" xlink:href="#SVGID_7_"/>
		</clipPath><path d="M 921 966.4000244140625 L 456 685.4000244140625 L 456 409.5 L 640 409.5 Z" clip-path="url(#SVGID_8_)" fill="#006955" transform="matrix(1, 0, 0, 1, -367.7887878417969, -374.40369415283203)"/><path fill="#FFFFFF" stroke="#FFFFFF" stroke-width="2" stroke-linejoin="round" stroke-miterlimit="10" d="M455.4,686h33.4h29.3&#10;&#9;&#9;&#9;h59.9h29.3h33.4V408.8h-33.4h-29.3h-59.9h-29.3h-33.4V686z M461.4,410.1c0,0.8-0.2,2.2-1.1,3.4c-0.8,1-2,1.6-3.6,1.8v-5.2H461.4z&#10;&#9;&#9;&#9; M546.3,548.1c0.3,0.7,0.9,1.2,1.7,1.2s1.5-0.5,1.7-1.2h25c-0.3,14.5-12.2,26.1-26.7,26.1c-14.5,0-26.4-11.7-26.7-26.1H546.3z&#10;&#9;&#9;&#9; M549.7,546.8c-0.3-0.7-0.9-1.2-1.7-1.2s-1.5,0.5-1.7,1.2h-25c0.3-14.5,12.2-26.1,26.7-26.1c14.5,0,26.4,11.7,26.7,26.1H549.7z&#10;&#9;&#9;&#9; M456.7,679.6c1.6,0.2,2.8,0.8,3.6,1.8c1,1.2,1.1,2.6,1.1,3.4h-4.7V679.6z M519.3,684.8v-17.3h57.3v17.3H519.3z M577.9,666.2&#10;&#9;&#9;&#9;h-59.9v18.6h-28v-46.7h34.2h47.4h34.2v46.7h-28V666.2z M526.8,636.8c5.1-6.6,12.9-10.5,21.2-10.5c8.3,0,16.2,3.9,21.2,10.5H526.8z&#10;&#9;&#9;&#9; M607.2,636.8h-36.4c-5.3-7.4-13.7-11.7-22.8-11.7c-9,0-17.5,4.4-22.8,11.7h-36.4v47.9h-26.1c0-1-0.2-2.7-1.4-4.2&#10;&#9;&#9;&#9;c-1-1.3-2.6-2-4.6-2.3V548.1H520c0.3,15.2,12.8,27.4,28,27.4c15.2,0,27.7-12.2,28-27.4h63.3v130.2c-2,0.3-3.6,1-4.6,2.3&#10;&#9;&#9;&#9;c-1.2,1.5-1.4,3.2-1.4,4.2h-26.1V636.8z M634.6,684.8c0-0.8,0.2-2.2,1.1-3.4c0.8-1,2-1.6,3.6-1.8v5.2H634.6z M639.3,415.3&#10;&#9;&#9;&#9;c-1.6-0.2-2.8-0.8-3.6-1.8c-1-1.2-1.1-2.6-1.1-3.4h4.7V415.3z M576.7,410.1v17.3h-57.3v-17.3H576.7z M518.1,428.7h59.9v-18.6h28&#10;&#9;&#9;&#9;v46.7h-34.2h-47.4h-34.2v-46.7h28V428.7z M569.2,458.1c-5.1,6.6-12.9,10.5-21.2,10.5c-8.3,0-16.2-3.9-21.2-10.5H569.2z&#10;&#9;&#9;&#9; M488.8,458.1h36.4c5.3,7.4,13.7,11.7,22.8,11.7c9,0,17.5-4.4,22.8-11.7h36.4v-47.9h26.1c0,1,0.2,2.7,1.4,4.2c1,1.3,2.6,2,4.6,2.3&#10;&#9;&#9;&#9;v130.2H576c-0.3-15.2-12.8-27.4-28-27.4c-15.2,0-27.7,12.2-28,27.4h-63.3V416.6c2-0.3,3.6-1,4.6-2.3c1.2-1.5,1.4-3.2,1.4-4.2h26.1&#10;&#9;&#9;&#9;V458.1z" transform="matrix(1, 0, 0, 1, -367.7887878417969, -374.40369415283203)"/><path d="M 549.9 442.299988 A 1.9 1.9 0 0 1 548 444.199988 A 1.9 1.9 0 0 1 546.1 442.299988 A 1.9 1.9 0 0 1 548 440.399988 A 1.9 1.9 0 0 1 549.9 442.299988 Z" fill="#FFFFFF" stroke="#FFFFFF" stroke-width="2" stroke-linejoin="round" stroke-miterlimit="10" transform="matrix(1, 0, 0, 1, -367.7887878417969, -374.40369415283203)"/><path d="M 549.9 652.599976 A 1.9 1.9 0 0 1 548 654.499976 A 1.9 1.9 0 0 1 546.1 652.599976 A 1.9 1.9 0 0 1 548 650.699976 A 1.9 1.9 0 0 1 549.9 652.599976 Z" fill="#FFFFFF" stroke="#FFFFFF" stroke-width="2" stroke-linejoin="round" stroke-miterlimit="10" transform="matrix(1, 0, 0, 1, -367.7887878417969, -374.40369415283203)"/><defs>
			<path d="M 737.700012 0 H 1096 V 358.299988 H 737.700012 V 0 Z" id="SVGID_9_"/>
		</defs><clipPath id="SVGID_10_">
			<use overflow="visible" xlink:href="#SVGID_9_"/>
		</clipPath><defs>
			<path d="M 737.700012 368.299988 H 1096 V 726.599976 H 737.700012 V 368.299988 Z" id="SVGID_11_"/>
		</defs><clipPath id="SVGID_12_">
			<use overflow="visible" xlink:href="#SVGID_11_"/>
		</clipPath>

</svg>